<?xml version="1.0" encoding="utf-8" ?>
<svg xmlns="http://www.w3.org/2000/svg" xmlns:xlink="http://www.w3.org/1999/xlink" width="1024" height="1024">
	<path fill="#FA4F00" transform="scale(2 2)" d="M185.707 143.763L185.691 118.697C185.689 111.925 185.155 104.676 186.648 98.0434C189.938 83.4298 202.572 73.2466 217.292 71.5302C221.762 71.1798 226.366 71.511 230.852 71.5161L381.383 71.5275C398.523 71.5103 412.779 69.251 426.104 82.3805C435.426 91.5658 436.642 100.915 436.691 113.374L436.71 389.437C436.732 409.566 431.081 427.601 407.539 431.362C401.353 432.351 394.533 431.777 388.265 431.773L226.875 431.776C214.79 431.783 204.188 429.04 195.566 419.94C182.131 405.761 185.132 379.323 185.707 359.979L332.182 359.989C347.179 359.993 364.539 361.433 364.754 340.834C364.892 327.598 364.729 314.341 364.729 301.103L364.74 177.97C364.746 166.398 368.067 146.524 351.936 143.945C347.808 143.285 341.182 143.755 336.852 143.756L185.707 143.763Z"/>
	<path fill="#FA4F00" transform="scale(2 2)" d="M76.2998 323.497L76.2998 179.51L256.457 179.51L256.457 323.497C239.96 323.149 223.381 323.495 206.875 323.497L198.228 323.497C192.815 317.347 186.697 311.797 180.901 306.012L147.991 273.493L147.991 323.497L76.2998 323.497Z"/>
</svg>
