<?xml version="1.0" encoding="utf-8" ?>
<svg xmlns="http://www.w3.org/2000/svg" xmlns:xlink="http://www.w3.org/1999/xlink" width="1024" height="1024">
	<path fill="#FA4F00" transform="scale(2 2)" d="M342.781 324.079C344.135 324.025 345.491 323.818 346.794 323.444C370.258 316.697 377.731 286.622 361.492 269.321C351.476 258.651 340.779 259.005 327.204 259.016C308.988 259.032 296.166 258.366 279.679 249.468C238.201 227.083 226.401 176.757 238.274 133.738C247.694 99.6073 268.692 78.0721 299.973 61.722C305.016 59.0858 310.262 55.8916 315.74 54.2777C321.218 53.9754 327.29 57.545 327.142 63.6948C327.075 66.4957 323.776 73.6806 322.759 76.9965C316.166 98.496 315.73 124.261 331.868 141.814C338.949 149.515 349.789 156.436 360.469 156.889C366.55 153.874 363.939 147.117 364.226 141.475C364.561 134.873 366.517 120.042 373.28 116.732C384.865 111.062 387.349 124.173 389.679 130.975C394.645 145.474 404.667 156.956 413.531 169.177C433.532 196.751 446.441 229.246 440.537 263.739C434.089 301.413 410.726 332.668 374.816 347.418C364.631 351.84 353.856 354.354 342.781 354.972L342.781 324.079Z"/>
	<path fill="#FA4F00" transform="scale(2 2)" d="M312.207 324.079L312.213 365.227C312.222 377.867 313.294 392.838 310.012 405.092C303.608 429.003 279.803 446.717 255.26 446.993C224.905 447.334 194.501 446.978 164.142 446.975L138.547 446.98C131.329 446.992 123.757 447.512 116.657 446.029C89.5202 440.36 70.6118 415.411 70.5491 387.959L70.5697 255.431C70.5484 232.788 71.3276 217.008 88.8587 199.52C102.349 186.062 114.537 183.468 132.691 183.519L205.393 183.519C205.903 192.203 211.608 215.491 217.74 222.574C211.321 222.133 204.764 222.566 198.328 222.569L137.948 222.554C119.583 222.534 109.554 225.667 109.328 246.156C108.968 278.783 109.326 311.455 109.323 344.086L109.309 373.505C109.299 386.256 107.478 403.437 124.664 406.636C129.565 407.549 135.028 407.14 140.004 407.129L249.832 407.141C276.063 407.221 271.81 388.283 271.806 369.3L271.814 324.079L304.566 324.079L312.207 324.079Z"/>
	<path fill="#FA4F00" transform="scale(2 2)" d="M176.236 338.987L176.255 350.592C176.265 362.732 175.764 375.118 161.251 377.836C151.294 379.7 141.874 372.377 140.122 362.631C139.28 357.946 139.591 352.923 139.59 348.171L139.595 306.133C139.602 293.366 138.793 278.455 155.372 275.817C168.224 275.002 171.967 281.171 179.094 290.276C185.15 298.013 193.826 310.127 200.29 316.57C200.63 307.465 198.589 292.661 202.887 284.876C207.933 275.738 219.601 274.05 228.253 278.946C238.881 284.959 236.923 298.525 236.93 308.846L236.929 349.253C236.918 362.133 237.174 373.813 222.294 377.754C209.114 380.343 203.73 371.991 196.277 363.213C189.525 355.259 182.645 347.219 176.236 338.987Z"/>
</svg>
